<?xml version="1.0" encoding="UTF-8"?>
<svg xmlns="http://www.w3.org/2000/svg" xmlns:xlink="http://www.w3.org/1999/xlink" width="20px" height="20px" viewBox="0 0 20 20" version="1.1">
<g id="surface1">
<path style=" stroke:none;fill-rule:nonzero;fill:rgb(0%,0%,0%);fill-opacity:1;" d="M 10 0 C 4.476562 0 0 4.476562 0 10 C 0 15.523438 4.476562 20 10 20 C 15.523438 20 20 15.523438 20 10 C 20 4.476562 15.523438 0 10 0 Z M 10 18.332031 C 5.398438 18.332031 1.667969 14.601562 1.667969 10 C 1.667969 5.398438 5.398438 1.667969 10 1.667969 C 14.601562 1.667969 18.332031 5.398438 18.332031 10 C 18.332031 14.601562 14.601562 18.332031 10 18.332031 Z M 10 18.332031 "/>
<path style=" stroke:none;fill-rule:nonzero;fill:rgb(0%,0%,0%);fill-opacity:1;" d="M 11.757812 4.726562 L 6.476562 10 L 11.757812 15.273438 L 12.933594 14.101562 L 8.832031 10 L 12.933594 5.898438 Z M 11.757812 4.726562 "/>
</g>
</svg>
