<?xml version="1.0" encoding="UTF-8"?>
<svg xmlns="http://www.w3.org/2000/svg" xmlns:xlink="http://www.w3.org/1999/xlink" width="40px" height="40px" viewBox="0 0 40 40" version="1.1">
<g id="surface1">
<path style="fill:none;stroke-width:4;stroke-linecap:round;stroke-linejoin:round;stroke:rgb(13.333333%,18.431373%,24.313725%);stroke-opacity:1;stroke-miterlimit:4;" d="M 9.601562 13.398438 L 9.601562 10.517578 C 9.601562 8.935547 10.890625 7.646484 12.482422 7.646484 L 16.320312 7.646484 C 17.912109 7.646484 19.201172 8.935547 19.201172 10.517578 L 19.201172 13.398438 " transform="matrix(0.4,0,0,0.4,0.8,4)"/>
<path style="fill:none;stroke-width:4;stroke-linecap:round;stroke-linejoin:round;stroke:rgb(13.333333%,18.431373%,24.313725%);stroke-opacity:1;stroke-miterlimit:4;" d="M 24.875 14.404297 L 2.873047 14.404297 C 1.28125 14.404297 0.00195313 15.693359 0.00195313 17.294922 L 0.00195313 77.744141 C 0.00195313 79.345703 1.28125 80.634766 2.873047 80.634766 L 93.126953 80.634766 C 94.71875 80.634766 95.998047 79.345703 95.998047 77.744141 L 95.998047 17.294922 C 95.998047 15.693359 94.71875 14.404297 93.126953 14.404297 L 71.164062 14.404297 L 64.171875 2.470703 C 63.361328 1.103516 61.427734 0 59.835938 0 L 36.271484 0 C 34.689453 0 32.736328 1.103516 31.935547 2.470703 Z M 24.875 14.404297 " transform="matrix(0.4,0,0,0.4,0.8,4)"/>
<path style="fill:none;stroke-width:4;stroke-linecap:round;stroke-linejoin:round;stroke:rgb(13.333333%,18.431373%,24.313725%);stroke-opacity:1;stroke-miterlimit:4;" d="M 69.123047 47.998047 C 69.123047 59.658203 59.669922 69.111328 48 69.111328 C 36.330078 69.111328 26.876953 59.658203 26.876953 47.998047 C 26.876953 36.337891 36.330078 26.875 48 26.875 C 59.669922 26.875 69.123047 36.337891 69.123047 47.998047 Z M 69.123047 47.998047 " transform="matrix(0.4,0,0,0.4,0.8,4)"/>
<path style="fill:none;stroke-width:4;stroke-linecap:round;stroke-linejoin:round;stroke:rgb(13.333333%,18.431373%,24.313725%);stroke-opacity:1;stroke-miterlimit:4;" d="M 43.195312 35.517578 C 40.294922 35.517578 35.529297 40.068359 35.529297 43.203125 " transform="matrix(0.4,0,0,0.4,0.8,4)"/>
<path style="fill:none;stroke-width:4;stroke-linecap:round;stroke-linejoin:round;stroke:rgb(13.333333%,18.431373%,24.313725%);stroke-opacity:1;stroke-miterlimit:4;" d="M 38.400391 11.523438 L 57.599609 11.523438 " transform="matrix(0.4,0,0,0.4,0.8,4)"/>
</g>
</svg>
