<?xml version="1.0" encoding="UTF-8"?>
<svg xmlns="http://www.w3.org/2000/svg" xmlns:xlink="http://www.w3.org/1999/xlink" width="25px" height="25px" viewBox="0 0 25 25" version="1.1">
<g id="surface1">
<path style=" stroke:none;fill-rule:nonzero;fill:rgb(0%,0%,0%);fill-opacity:1;" d="M 21.46875 16.996094 L 21.46875 12.226562 C 21.46875 8.027344 18.574219 4.511719 14.675781 3.539062 C 14.84375 3.207031 14.945312 2.839844 14.945312 2.445312 C 14.945312 1.097656 13.847656 0 12.5 0 C 11.152344 0 10.054688 1.097656 10.054688 2.445312 C 10.054688 2.839844 10.15625 3.207031 10.324219 3.539062 C 6.425781 4.511719 3.53125 8.027344 3.53125 12.226562 L 3.53125 16.996094 C 2.585938 17.335938 1.902344 18.230469 1.902344 19.292969 C 1.902344 20.644531 2.996094 21.738281 4.347656 21.738281 L 8.507812 21.738281 C 8.882812 23.601562 10.527344 25 12.5 25 C 14.472656 25 16.117188 23.601562 16.492188 21.738281 L 20.652344 21.738281 C 22.003906 21.738281 23.097656 20.644531 23.097656 19.292969 C 23.097656 18.230469 22.414062 17.335938 21.46875 16.996094 Z M 12.5 1.628906 C 12.949219 1.628906 13.316406 1.996094 13.316406 2.445312 C 13.316406 2.894531 12.949219 3.261719 12.5 3.261719 C 12.050781 3.261719 11.683594 2.894531 11.683594 2.445312 C 11.683594 1.996094 12.050781 1.628906 12.5 1.628906 Z M 8.425781 12.226562 C 8.425781 12.679688 8.058594 13.042969 7.609375 13.042969 C 7.160156 13.042969 6.792969 12.679688 6.792969 12.226562 C 6.796875 9.078125 9.351562 6.523438 12.5 6.523438 C 12.949219 6.523438 13.316406 6.886719 13.316406 7.335938 C 13.316406 7.789062 12.949219 8.152344 12.5 8.152344 C 10.253906 8.15625 8.429688 9.984375 8.425781 12.226562 Z M 12.5 23.371094 C 11.4375 23.367188 10.542969 22.6875 10.207031 21.738281 L 14.792969 21.738281 C 14.457031 22.6875 13.5625 23.367188 12.5 23.371094 Z M 12.5 23.371094 "/>
</g>
</svg>
